<?xml version="1.0" encoding="utf-8"?>
<!-- Generator: Adobe Illustrator 26.0.1, SVG Export Plug-In . SVG Version: 6.00 Build 0)  -->
<svg version="1.1" id="Layer_1" xmlns="http://www.w3.org/2000/svg" xmlns:xlink="http://www.w3.org/1999/xlink" x="0px" y="0px"
	 viewBox="0 0 285.91 72" style="enable-background:new 0 0 285.91 72;" xml:space="preserve">
<g>
	<path d="M8.3,16.95c0-0.91,0.21-1.79,0.64-2.64c0.43-0.85,0.99-1.6,1.7-2.26c0.71-0.65,1.5-1.18,2.39-1.58
		c0.88-0.4,1.75-0.6,2.6-0.6h6.82c4.43,0,8.29,0.74,11.59,2.22c3.29,1.48,6.04,3.44,8.22,5.88c2.19,2.44,3.83,5.2,4.94,8.27
		c1.11,3.07,1.66,6.22,1.66,9.46c0,3.18-0.53,6.28-1.58,9.29c-1.05,3.01-2.64,5.68-4.77,8.01c-2.13,2.33-4.77,4.22-7.93,5.67
		c-3.15,1.45-6.83,2.17-11.04,2.17h-7.93c-2.22,0-3.99-0.64-5.33-1.92c-1.34-1.28-2-3-2-5.16V16.95z M23.64,46.69
		c1.88,0,3.51-0.34,4.9-1.02c1.39-0.68,2.57-1.56,3.54-2.64c0.97-1.08,1.69-2.31,2.17-3.71c0.48-1.39,0.72-2.82,0.72-4.3
		c0-1.36-0.23-2.7-0.68-4.01c-0.46-1.31-1.15-2.46-2.09-3.45c-0.94-0.99-2.13-1.8-3.58-2.43c-1.45-0.62-3.14-0.94-5.07-0.94h-1.19
		v22.5H23.64z"/>
	<path d="M67.61,53.76c0,2.27-0.7,4-2.09,5.2c-1.39,1.19-3.03,1.79-4.9,1.79c-1.93,0-3.59-0.6-4.99-1.79
		c-1.39-1.19-2.09-2.93-2.09-5.2V16.95c0-2.27,0.7-4.01,2.09-5.2c1.39-1.19,3.05-1.79,4.99-1.79c1.88,0,3.51,0.6,4.9,1.79
		c1.39,1.19,2.09,2.93,2.09,5.2V53.76z"/>
	<path d="M110.05,53.76c0,2.22-0.68,3.95-2.05,5.2c-1.36,1.25-3.07,1.88-5.11,1.88h-5.11c-4.21,0-7.9-0.72-11.08-2.17
		c-3.18-1.45-5.84-3.34-7.97-5.67c-2.13-2.33-3.72-5-4.77-8.01c-1.05-3.01-1.58-6.11-1.58-9.29c0-3.24,0.55-6.39,1.66-9.46
		c1.11-3.07,2.76-5.82,4.94-8.27c2.19-2.44,4.94-4.4,8.27-5.88c3.32-1.48,7.2-2.22,11.63-2.22h4c1.19,0,2.23,0.2,3.11,0.6
		c0.88,0.4,1.62,0.94,2.22,1.62c0.6,0.68,1.05,1.45,1.36,2.3c0.31,0.85,0.47,1.73,0.47,2.64c0,0.91-0.16,1.79-0.47,2.64
		c-0.31,0.85-0.77,1.62-1.36,2.3c-0.6,0.68-1.34,1.22-2.22,1.62c-0.88,0.4-1.92,0.6-3.11,0.6h-5.11c-1.99,0-3.71,0.31-5.16,0.94
		c-1.45,0.63-2.67,1.46-3.66,2.51c-0.99,1.05-1.73,2.25-2.22,3.58c-0.48,1.34-0.72,2.71-0.72,4.13c0,1.31,0.21,2.59,0.64,3.83
		c0.43,1.25,1.05,2.4,1.87,3.45c0.82,1.05,1.86,1.93,3.11,2.64c1.25,0.71,2.7,1.15,4.35,1.32v-8.27c0-2.27,0.69-4,2.09-5.2
		c1.39-1.19,3.05-1.79,4.99-1.79c1.87,0,3.51,0.6,4.9,1.79c1.39,1.19,2.09,2.93,2.09,5.2V53.76z"/>
	<path d="M129.82,53.76c0,2.27-0.7,4-2.09,5.2c-1.39,1.19-3.03,1.79-4.9,1.79c-1.93,0-3.59-0.6-4.99-1.79
		c-1.39-1.19-2.09-2.93-2.09-5.2V16.95c0-2.27,0.7-4.01,2.09-5.2c1.39-1.19,3.05-1.79,4.99-1.79c1.88,0,3.51,0.6,4.9,1.79
		c1.39,1.19,2.09,2.93,2.09,5.2V53.76z"/>
	<path d="M160.25,53.76c0,2.27-0.7,4-2.09,5.2c-1.39,1.19-3.05,1.79-4.99,1.79c-1.87,0-3.51-0.6-4.9-1.79
		c-1.39-1.19-2.09-2.93-2.09-5.2V24.02h-4.94c-2.22,0-3.95-0.7-5.2-2.09c-1.25-1.39-1.88-3.05-1.88-4.99c0-1.93,0.62-3.59,1.88-4.99
		c1.25-1.39,2.98-2.09,5.2-2.09h23.78c2.22,0,3.95,0.7,5.2,2.09c1.25,1.39,1.87,3.05,1.87,4.99c0,1.93-0.62,3.59-1.87,4.99
		c-1.25,1.39-2.98,2.09-5.2,2.09h-4.77V53.76z"/>
	<path d="M190.41,53.76c0,2.27-0.7,4-2.09,5.2c-1.39,1.19-3.03,1.79-4.9,1.79c-1.93,0-3.59-0.6-4.99-1.79
		c-1.39-1.19-2.09-2.93-2.09-5.2V16.95c0-2.27,0.69-4.01,2.09-5.2c1.39-1.19,3.05-1.79,4.99-1.79c1.87,0,3.51,0.6,4.9,1.79
		c1.39,1.19,2.09,2.93,2.09,5.2V53.76z"/>
	<path d="M210.52,53.59c0,4.83-2.36,7.24-7.07,7.24c-2.39,0-4.16-0.61-5.33-1.83c-1.17-1.22-1.75-2.97-1.75-5.24V16.95
		c0-4.72,2.27-7.07,6.82-7.07h14.32c3.07,0,5.72,0.47,7.97,1.41c2.24,0.94,4.09,2.17,5.54,3.71c1.45,1.53,2.53,3.28,3.24,5.24
		c0.71,1.96,1.07,3.96,1.07,6.01c0,2.05-0.33,4.03-0.98,5.97c-0.65,1.93-1.62,3.65-2.9,5.16c-1.28,1.51-2.84,2.73-4.69,3.67
		c-1.85,0.94-3.96,1.41-6.35,1.41h-2.3c-4.26,0-6.39-1.9-6.39-5.71c0-1.36,0.26-2.4,0.77-3.11c0.51-0.71,1.16-1.25,1.96-1.62
		c0.79-0.37,1.65-0.62,2.56-0.77c0.91-0.14,1.76-0.34,2.56-0.6c0.79-0.26,1.48-0.64,2.05-1.15c0.57-0.51,0.88-1.31,0.94-2.39
		c0-2.56-1.48-3.83-4.43-3.83h-7.59V53.59z"/>
	<path d="M275.97,44.56c0,10.85-5.28,16.28-15.85,16.28h-13.98c-4.49,0-6.73-2.27-6.73-6.82v-0.26c0.11-4.71,2.39-7.07,6.82-7.07
		h14.66c0.96,0,1.67-0.27,2.13-0.81c0.45-0.54,0.68-1.12,0.68-1.75c0-0.62-0.23-1.21-0.68-1.75c-0.46-0.54-1.17-0.81-2.13-0.81
		h-7.24c-10,0-15-5.14-15-15.42c0-10.85,5.34-16.28,16.02-16.28h11.25c4.49,0,6.73,2.27,6.73,6.82v0.26
		c-0.11,4.72-2.39,7.07-6.82,7.07h-12.1c-0.97,0-1.68,0.27-2.13,0.81c-0.46,0.54-0.68,1.12-0.68,1.75c0,0.63,0.23,1.21,0.68,1.75
		c0.45,0.54,1.16,0.81,2.13,0.81h7.24C270.97,29.13,275.97,34.27,275.97,44.56z"/>
</g>
</svg>
