<svg enable-background="new 0 0 207.3 285.89" viewBox="0 0 207.3 285.89" xmlns="http://www.w3.org/2000/svg"><g fill="none" stroke="#000" stroke-miterlimit="10" stroke-width="10"><path d="m193.05 100.85c0 25.18-10.35 47.95-27 64.3-16.22 15.88-38.45 25.7-62.98 25.7-.03 0-.03 0-.03 0s0 0-.03 0c-24.52 0-46.75-9.82-62.98-25.7-16.65-16.35-27-39.12-27-64.3 0-25 10.2-47.62 26.65-63.95 16.28-16.1 38.63-26.05 63.33-26.05h.03s0 0 .03 0c24.47 0 46.67 9.8 62.9 25.65 16.71 16.35 27.08 39.13 27.08 64.35z"/><path d="m13.05 100.85h180"/><path d="m103.26 219.8v-208.58"/><path d="m165.98 37.5c-9.05 6.12-19.02 10.95-29.67 14.27-10.5 3.25-21.67 5.03-33.25 5.08h-.5c-11.43 0-22.47-1.68-32.87-4.82-10.76-3.25-20.86-8.03-29.99-14.13 16.28-16.1 38.63-26.05 63.33-26.05h.03s0 0 .03 0c24.46 0 46.66 9.8 62.89 25.65z"/><path d="m193.05 100.85c0 25.18-10.35 47.95-27 64.3-16.22 15.88-38.45 25.7-62.98 25.7-.03 0-.03 0-.03 0s0 0-.03 0c-13.97-10.53-25.42-24.2-33.27-40-7.5-15.08-11.7-32.05-11.7-50 0-17.88 4.17-34.8 11.63-49.82 7.83-15.88 19.33-29.63 33.36-40.18h.03s0 0 .03 0c24.47 0 46.67 9.8 62.9 25.65 16.69 16.35 27.06 39.13 27.06 64.35z"/><path d="m166.05 164.15c-16.22 15.88-38.45 25.7-62.98 25.7-.03 0-.03 0-.03 0s0 0-.03 0c-24.52 0-46.75-9.82-62.98-25.7 9.05-6.15 19.02-10.98 29.7-14.3 10.53-3.25 21.7-5 33.3-5s22.77 1.75 33.3 5c10.7 3.33 20.67 8.15 29.72 14.3z"/><path d="m148.05 100.85c0 17.95-4.2 34.92-11.7 50-7.85 15.8-19.3 29.47-33.27 40-.03 0-.03 0-.03 0s0 0-.03 0c-24.52 0-46.75-9.82-62.98-25.7-16.65-16.35-27-39.12-27-64.3 0-25 10.2-47.62 26.65-63.95 16.28-16.1 38.63-26.05 63.33-26.05h.03s0 0 .03 0c13.95 10.5 25.4 24.15 33.22 39.92 7.53 15.08 11.75 32.11 11.75 50.08z"/><path d="m35.85 160.74s11.83 14.91 17.1 36.4 7.78 20.04 16.35 20.04 33.75 0 33.75 0"/><path d="m170.25 160.74s-11.83 14.91-17.1 36.4-7.78 20.04-16.35 20.04-33.75 0-33.75 0"/><path d="m61.99 216.6s-.34 23.79 15.88 23.79 25.18 0 25.18 0"/><path d="m144.11 216.6s.34 23.79-15.88 23.79-25.18 0-25.18 0"/><path d="m67.82 235.89s1.52 23.31 13.19 23.31 22.04 0 22.04 0"/><path d="m138.28 235.89s-1.52 23.31-13.19 23.31-22.04 0-22.04 0"/><path d="m82.52 257.34s-1.17 17.7 20.53 17.7"/><path d="m123.58 257.34s1.17 17.7-20.53 17.7"/></g></svg>